<svg xmlns="http://www.w3.org/2000/svg" viewBox="0 0 16 16" width="16px" height="16px"><path fill="#888" d="M11.18 4.78C10.477 4.077 9.58 4 8.57 4c-1.11 0-2.11.43-2.81 1.13-.03.03-.06.06-.09.1-.45.45-.78 1.04-.9 1.66-.13.64.01 1.3.36 1.9.34.58.88 1.11 1.57 1.57.7.46 1.5.74 2.3.74.82 0 1.61-.27 2.31-.74.7-.46 1.23-.99 1.57-1.57.35-.6.49-1.26.36-1.9-.12-.62-.45-1.21-.9-1.66-.03-.04-.06-.07-.09-.1M8.57 3c1.27 0 2.44.48 3.32 1.36.91.91 1.36 2.11 1.36 3.39s-.45 2.48-1.36 3.39c-.88.88-2.05 1.36-3.32 1.36s-2.44-.48-3.32-1.36C4.34 10.27 3.89 9.07 3.89 7.75s.45-2.48 1.36-3.39C6.13 3.48 7.3 3 8.57 3m-.01 3.04c-.6 0-1.13.26-1.5.68-.37.42-.59.97-.59 1.57 0 .61.22 1.16.59 1.58.37.42.9.68 1.5.68.6 0 1.13-.26 1.5-.68.37-.42.59-.97.59-1.58 0-.6-.22-1.15-.59-1.57-.37-.42-.9-.68-1.5-.68"/><path fill="#888" d="M10.86 2.25c.18-.62-.16-1.28-.78-1.46-.62-.18-1.28.16-1.46.78-.18.62.16 1.28.78 1.46.62.18 1.28-.16 1.46-.78"/></svg>
